HIERARCHY
ROOT Hips
{
	OFFSET -3.958830 18.904000 13.208200
	CHANNELS 6 Xposition Yposition Zposition Zrotation Yrotation Xrotation 
	JOINT LHipJoint
	{
		OFFSET 0.000000 0.000000 0.000000
		CHANNELS 3 Zrotation Yrotation Xrotation
		JOINT LeftUpLeg
		{
			OFFSET 1.800000 -1.400000 0.085000
			CHANNELS 3 Zrotation Yrotation Xrotation
			JOINT LeftLeg
			{
				OFFSET 2.215000 -6.000000 0.000000
				CHANNELS 3 Zrotation Yrotation Xrotation
				JOINT LeftFoot
				{
					OFFSET 2.500000 -6.900000 0.000000
					CHANNELS 3 Zrotation Yrotation Xrotation
					JOINT LeftToeBase
					{
						OFFSET 0.200000 -0.500000 1.950000
						CHANNELS 3 Zrotation Yrotation Xrotation
						End Site
						{
							OFFSET 0.000000 0.000000 0.000000
						}
					}
				}
			}
		}
	}
	JOINT RHipJoint
	{
		OFFSET 0.000000 0.000000 0.000000
		CHANNELS 3 Zrotation Yrotation Xrotation
		JOINT RightUpLeg
		{
			OFFSET -1.800000 -1.400000 0.085000
			CHANNELS 3 Zrotation Yrotation Xrotation
			JOINT RightLeg
			{
				OFFSET -2.215000 -6.000000 0.000000
				CHANNELS 3 Zrotation Yrotation Xrotation
				JOINT RightFoot
				{
					OFFSET -2.500000 -6.900000 0.000000
					CHANNELS 3 Zrotation Yrotation Xrotation
					JOINT RightToeBase
					{
						OFFSET -0.200000 -0.500000 1.950000
						CHANNELS 3 Zrotation Yrotation Xrotation
						End Site
						{
							OFFSET 0.000000 0.000000 0.000000
						}
					}
				}
			}
		}
	}
	JOINT LowerBack
	{
		OFFSET 0.000000 0.000000 0.000000
		CHANNELS 3 Zrotation Yrotation Xrotation
		JOINT Spine
		{
			OFFSET -0.087000 1.940000 -0.288900
			CHANNELS 3 Zrotation Yrotation Xrotation
			JOINT Spine1
			{
				OFFSET 0.000000 1.950000 0.060000
				CHANNELS 3 Zrotation Yrotation Xrotation
				JOINT Neck
				{
					OFFSET 0.000000 0.000000 0.000000
					CHANNELS 3 Zrotation Yrotation Xrotation
					JOINT Neck1
					{
						OFFSET 0.000000 1.600000 0.340000
						CHANNELS 3 Zrotation Yrotation Xrotation
						JOINT Head
						{
							OFFSET 0.000000 1.667000 -0.240000
							CHANNELS 3 Zrotation Yrotation Xrotation
							End Site
							{
								OFFSET 0.000000 0.000000 0.000000
							}
						}
					}
				}
				JOINT LeftShoulder
				{
					OFFSET 0.000000 0.000000 0.000000
					CHANNELS 3 Zrotation Yrotation Xrotation
					JOINT LeftArm
					{
						OFFSET 2.700000 1.550000 -0.730000
						CHANNELS 3 Zrotation Yrotation Xrotation
						JOINT LeftForeArm
						{
							OFFSET 5.450000 0.000000 0.000000
							CHANNELS 3 Zrotation Yrotation Xrotation
							JOINT LeftHand
							{
								OFFSET 3.450000 0.000000 0.000000
								CHANNELS 3 Zrotation Yrotation Xrotation
								JOINT LeftHandIndex1
								{
									OFFSET 0.750000 0.000000 0.000000
									CHANNELS 3 Zrotation Yrotation Xrotation
									End Site
									{
										OFFSET 0.000000 0.000000 0.000000
									}
								}
							}
						}
					}
				}
				JOINT RightShoulder
				{
					OFFSET 0.000000 0.000000 0.000000
					CHANNELS 3 Zrotation Yrotation Xrotation
					JOINT RightArm
					{
						OFFSET -2.700000 1.550000 -0.730000
						CHANNELS 3 Zrotation Yrotation Xrotation
						JOINT RightForeArm
						{
							OFFSET -5.450000 0.000000 0.000000
							CHANNELS 3 Zrotation Yrotation Xrotation
							JOINT RightHand
							{
								OFFSET -3.450000 0.000000 0.000000
								CHANNELS 3 Zrotation Yrotation Xrotation
								JOINT RightHandIndex1
								{
									OFFSET -0.750000 0.000000 0.000000
									CHANNELS 3 Zrotation Yrotation Xrotation
									End Site
									{
										OFFSET 0.000000 0.000000 0.000000
									}
								}
							}
						}
					}
				}
			}
		}
	}
}
MOTION
Frames: 4
Frame Time: 0.016667
1.417880 16.613740 0.018660 -6.150216 57.125118 -20.591196 -15.716793 14.707099 2.830262 2.812707 0.251412 3.696851 2.440112 8.808479 41.123322 0.787054 7.734640 1.921677 0.502650 0.493520 0.069720 17.484694 -9.877530 3.703362 -8.064143 5.122659 -13.757007 27.758029 -9.781232 19.514367 -0.613681 -5.379301 2.446861 0.307160 0.016470 -0.108580 -2.541405 -4.448827 -8.149558 7.899290 2.372226 26.385783 11.442742 -0.543151 25.199285 -9.668402 3.869608 -21.588036 1.540375 -23.449402 31.324763 18.661650 -26.460680 -19.672330 22.548188 -40.667031 -18.291978 32.948247 -34.911533 -12.916499 7.945140 -2.681793 -0.546658 -3.557169 3.016505 0.177510 -0.245800 -0.024760 0.200720 -5.027514 44.560892 24.925508 0.942135 13.308737 -13.184799 -29.287290 6.929362 -4.326344 3.057440 -2.093187 0.047000 0.222330 -0.144980 0.130520 
1.388960 16.637720 0.013920 -7.039236 59.830015 -20.976781 -15.706805 14.761915 2.814600 3.707865 0.157595 3.285175 1.825353 8.941124 40.254036 0.758401 7.626918 1.955924 0.491520 0.472130 0.063730 17.476432 -9.904455 3.703731 -8.101209 5.138376 -14.473255 27.056164 -9.620897 19.680548 -0.581388 -5.261351 2.490597 0.287920 0.007500 -0.115820 -2.494848 -4.505177 -8.100549 7.972723 2.163573 26.591629 11.107519 -0.388694 24.445498 -9.281686 4.235872 -21.571214 2.371908 -24.761095 30.645652 19.578460 -27.611430 -20.433720 22.196215 -40.723661 -18.328121 34.573801 -37.386292 -14.926507 9.089810 -3.072631 -0.738444 -3.579748 3.032876 0.189450 -0.260490 -0.022990 0.199200 -5.437575 44.408807 25.259434 0.958548 11.455822 -10.102728 -25.799458 4.239576 -2.858402 3.096116 -1.962067 0.046160 0.220040 -0.143810 0.129670 
1.361140 16.661220 0.013640 -8.184693 62.665701 -21.483301 -15.686603 14.836532 2.802175 4.533656 0.001327 2.721443 1.427868 8.914589 39.364592 0.717017 7.487898 1.996730 0.483090 0.462210 0.061520 17.481692 -9.930317 3.673766 -7.951859 5.075896 -15.290697 25.912618 -9.429544 20.016682 -0.540733 -5.098774 2.541299 0.277520 -0.001540 -0.121120 -2.391965 -4.624848 -8.031521 7.696102 2.010703 26.535747 11.251328 -0.485089 23.739453 -9.134711 4.955793 -21.458117 3.832217 -26.128075 29.619705 20.465040 -28.471850 -21.432850 22.589105 -40.903502 -18.867973 34.994741 -39.513073 -16.574252 10.686140 -3.833060 -0.996110 -3.588554 3.103598 0.200110 -0.273810 -0.015370 0.194970 -6.245918 44.291807 25.560585 1.515126 9.945766 -7.610635 -23.255403 2.228551 -1.896858 3.136538 -1.837928 0.045390 0.221730 -0.142920 0.130010 
1.334810 16.685800 0.011790 -10.051562 65.514101 -22.664448 -15.649475 14.920773 2.787286 5.456862 -0.181959 2.147579 1.050793 8.819218 38.278654 0.656298 7.325579 2.043195 0.479300 0.461110 0.057110 17.506102 -9.941016 3.638145 -7.792296 4.963889 -16.041541 24.835972 -9.304328 20.395427 -0.503754 -4.958355 2.588225 0.277340 -0.004100 -0.125910 -2.245572 -4.824646 -7.961216 7.528965 1.732704 26.321284 11.606922 -0.874349 23.165915 -8.963476 5.713045 -21.043721 5.302543 -27.492111 28.459323 21.244820 -29.158930 -22.543200 22.736970 -41.328687 -19.502506 34.454327 -41.817014 -18.437242 13.566705 -4.701790 -1.546431 -3.623074 3.198499 0.208870 -0.280320 -0.010830 0.193270 -6.904281 44.353850 25.776241 2.197802 8.117401 -6.146138 -21.897133 1.641518 -1.432367 3.136848 -1.762126 0.041490 0.230890 -0.139560 0.130250 
